<svg width="1280" height="400" viewBox="0 0 1280 400" fill="none" xmlns="http://www.w3.org/2000/svg">
<g filter="url(#filter0_f_0_1)">
<g filter="url(#filter1_f_0_1)">
<ellipse cx="118.5" cy="400.184" rx="66.5" ry="72.1838" fill="url(#paint0_linear_0_1)" fill-opacity="0.7"/>
</g>
<ellipse cx="118.5" cy="400.184" rx="66.5" ry="72.1838" fill="url(#paint1_linear_0_1)" fill-opacity="0.7"/>
</g>
<g filter="url(#filter2_f_0_1)">
<g filter="url(#filter3_f_0_1)">
<ellipse cx="7.51968" cy="350" rx="87.5197" ry="95" fill="#2FBBE6"/>
</g>
<ellipse cx="7.51968" cy="350" rx="87.5197" ry="95" fill="#2FBBE6"/>
</g>
<g filter="url(#filter4_f_0_1)">
<g filter="url(#filter5_f_0_1)">
<circle cx="1102" cy="28" r="60" fill="url(#paint2_linear_0_1)" fill-opacity="0.7"/>
</g>
<circle cx="1102" cy="28" r="60" fill="url(#paint3_linear_0_1)" fill-opacity="0.7"/>
</g>
<g filter="url(#filter6_f_0_1)">
<g filter="url(#filter7_f_0_1)">
<ellipse cx="1255.5" cy="299.44" rx="69.5" ry="75.4402" fill="#2FBBE6"/>
</g>
<ellipse cx="1255.5" cy="299.44" rx="69.5" ry="75.4402" fill="#2FBBE6"/>
</g>
<g filter="url(#filter8_f_0_1)">
<g filter="url(#filter9_f_0_1)">
<circle cx="1010.5" cy="368.5" r="31.5" fill="url(#paint4_linear_0_1)"/>
</g>
<circle cx="1010.5" cy="368.5" r="31.5" fill="url(#paint5_linear_0_1)"/>
</g>
<g filter="url(#filter10_f_0_1)">
<path fill-rule="evenodd" clip-rule="evenodd" d="M1189.74 -50.2286C1184.86 -36.1215 1171.75 -5.87827 1168.31 -0.818791C1167.66 0.141119 1166 -9.94795 1164.3 -25.1053L1163.64 -31.0271L1157.15 -35.7966L1150.66 -40.5659L1150.3 -37.4919C1150.11 -35.801 1149.34 -26.2572 1148.61 -16.2831L1147.27 1.85078L1139.94 23.7018C1135.91 35.7207 1132.4 45.6659 1132.14 45.8036C1131.88 45.9413 1128.82 43.1063 1125.33 39.5046L1118.99 32.9558L1107.42 30.1068C1101.05 28.5397 1095.7 27.4758 1095.52 27.7425C1095.33 28.0094 1095.11 38.8368 1095.02 51.8029C1094.86 74.4948 1094.75 75.7135 1092.17 84.3162L1089.48 93.2539L1076.19 99.3317L1062.89 105.409L1047.11 121.597C1034.48 134.558 1030.95 137.743 1029.39 137.575C1028.32 137.458 1020.46 136.046 1011.93 134.438C993.784 131.015 994.903 130.978 994.058 135.034L993.392 138.224L986.837 139.244L980.281 140.264L978.391 134.328C976.08 127.065 980.995 129.054 934.931 116.742C902.282 108.016 896.332 106.687 889.126 106.512C881.403 106.326 879.913 105.939 867.062 100.794L853.279 95.276L850.082 90.0953C827.63 53.7025 829.98 56.8039 827.124 59.7955C824.319 62.7342 826.296 64.7853 809.868 41.8843L795.771 22.2343L787.238 20.2295L778.705 18.2248L778.621 28.9705C778.523 41.6043 778.761 41.0316 773.908 40.3168C769.255 39.6315 767.653 39.8768 768.41 41.1585C768.726 41.6919 771.894 51.0381 775.451 61.9274L781.92 81.728L799.271 95.8008L816.62 109.874L842.358 119.338L868.096 128.803L869.311 132.222L870.525 135.64L878.067 137.029L885.609 138.418L906.426 156.589C931.593 178.557 929.121 175.712 928.473 181.961C927.955 186.958 928.03 187.339 930.412 191.84C932.345 195.492 933.064 198.029 933.678 203.369C934.463 210.2 934.476 210.229 939.518 216.735L944.57 223.255L953.563 223.944C964.258 224.763 963.889 225.055 959.893 218.944L956.693 214.049L957.778 210.002C959.087 205.124 957.408 204.151 975.224 220.114L988.901 232.369L990.562 238.312C994.87 253.73 1000.55 278.329 1000.35 280.708C1000.01 284.693 997.499 285.724 986.864 286.246L977.809 286.69L966.965 294.304L956.122 301.918L953.261 311.292L950.399 320.665L961.132 332.405C967.035 338.863 972.048 344.272 972.27 344.427C973.256 345.111 972.97 343.415 970.873 336.127C967.698 325.102 967.64 325.307 975.696 319.111C983.652 312.993 982.995 312.896 988.495 321.021L991.755 325.836L989.188 329.288L986.622 332.741L993.124 334.244C999.38 335.692 999.713 335.679 1001.95 333.919C1003.22 332.914 1004.61 332.35 1005.02 332.666C1006.21 333.583 1011.72 342.617 1015.89 350.482C1020.39 358.988 1019.97 359.145 1024.05 347.41C1027.69 336.942 1028 336.917 1030.8 346.868C1031.89 350.751 1033.04 354.203 1033.35 354.541C1035.12 356.489 1044.44 330.003 1043.58 325.471C1041.7 315.636 1042.64 315.008 1050.87 320.599C1058.18 325.57 1055.83 327.396 1068.58 306.829C1074.58 297.157 1079.94 289.126 1080.49 288.984C1081.04 288.841 1091.89 290.406 1104.59 292.462C1132.14 296.917 1130.49 296.852 1129.48 293.454C1128.47 290.071 1126.35 290.064 1153.33 293.539L1176.62 296.54L1185.77 287.575C1190.81 282.645 1195.97 277.487 1197.23 276.111L1199.54 273.611L1187.28 270.469C1180.54 268.741 1164.52 264.496 1151.67 261.035L1128.33 254.742L1108.71 241.392C1093.9 231.306 1088.59 227.217 1086.99 224.67C1083.86 219.663 1084.59 219.946 1093.51 227.201C1097.99 230.843 1102.26 233.87 1103 233.928C1103.74 233.987 1106.52 234.074 1109.18 234.121L1114.01 234.208L1123.42 243.95L1132.83 253.691L1136.53 251.337C1171.88 228.806 1175.36 226.367 1186.49 216.247L1197.82 205.953L1203.45 205.903C1206.55 205.875 1209.15 205.59 1209.24 205.271C1209.32 204.951 1210.36 201.242 1211.54 197.027L1213.69 189.362L1222.51 183.407C1230.57 177.966 1231.84 177.369 1237.22 176.496L1243.11 175.54L1242.25 157.238C1241.78 147.173 1241.11 138.356 1240.77 137.644C1240.21 136.473 1240.94 136.361 1248.48 136.462C1258.5 136.596 1258.09 137.077 1254.47 129.475C1252.86 126.068 1251.63 123.175 1251.75 123.049C1251.87 122.921 1253.93 121.883 1256.34 120.741L1260.71 118.665L1259.96 110.873C1259.05 101.37 1258.94 101.185 1253.14 99.3601C1246.69 97.3283 1247.6 96.679 1257.6 96.179C1268.09 95.6535 1267.74 95.8742 1269.97 88.4454L1271.78 82.4115L1269.34 77.9157L1266.89 73.419L1272.5 65.593L1278.11 57.766L1274.27 54.8627C1272.16 53.2655 1268.42 51.2492 1265.95 50.3817C1260.42 48.4396 1260.43 49.3664 1265.92 40.4946C1271.3 31.8182 1271.26 32.7092 1266.39 29.9418C1262.61 27.7974 1262.4 27.7857 1252.87 29.2051C1246.59 30.1401 1243.12 30.3215 1243.01 29.7213C1242.91 29.212 1250 20.2122 1258.75 9.72196L1274.66 -9.35117L1272.33 -19.5604L1269.99 -29.7694L1261.55 -35.3447L1253.11 -40.9194L1249.48 -51.2975C1244.86 -64.4709 1245.2 -64.3732 1239.8 -54.0748C1234.18 -43.3782 1234.9 -43.4118 1229.92 -53.6159C1227.64 -58.2837 1225.18 -63.2913 1224.46 -64.7448L1223.16 -67.3873L1218.88 -57.8262C1216.52 -52.5672 1214.37 -48.2209 1214.09 -48.1678C1213.82 -48.1139 1209.96 -52.4975 1205.53 -57.909C1201.1 -63.3213 1197.11 -67.7861 1196.66 -67.8323C1196.22 -67.8776 1193.1 -59.9564 1189.74 -50.2286ZM1201.46 -55.8711C1202.98 -54.1445 1206.37 -50.0177 1209.01 -46.7007L1213.8 -40.6714L1206.69 -20.7537C1196.25 8.46699 1193.07 16.9979 1182.07 45.2037C1180.84 48.355 1180.95 48.5965 1174.58 27.938L1168.75 9.03342L1178.21 -10.7365C1183.42 -21.6093 1189.89 -36.8679 1192.61 -44.6448C1198.19 -60.616 1197.77 -60.0905 1201.46 -55.8711ZM806.631 45.1392C814.064 55.5245 820.056 64.1529 819.948 64.3123C819.396 65.1264 784.216 44.3815 783.967 43.0955C783.663 41.5329 783.471 28.2209 783.716 25.6921C783.849 24.3128 784.243 24.2743 788.489 25.2227L793.118 26.2576L806.631 45.1392ZM1226.07 -50.7082C1232.27 -38.4108 1234.25 -34.7979 1234.7 -34.9287C1234.98 -35.0076 1237.02 -38.7107 1239.25 -43.1578C1241.48 -47.6049 1243.55 -51.2916 1243.85 -51.3499C1244.37 -51.4509 1248.4 -40.8311 1248.99 -37.8201C1249.38 -35.762 1183.91 53.5447 1182.63 52.6848C1182.29 52.4548 1184.8 44.823 1188.2 35.7252C1191.61 26.6266 1199.08 6.21648 1204.81 -9.63182C1214.98 -37.7758 1221.87 -54.8629 1223.15 -55.1113C1223.5 -55.1793 1224.81 -53.1983 1226.07 -50.7082ZM1161.12 -14.548C1162.17 -6.03475 1163.39 0.507639 1164.63 4.17492L1166.54 9.81129L1162.8 14.7638C1150.64 30.8691 1137.23 48.0356 1137.14 47.605C1137.09 47.3293 1140.33 37.2445 1144.34 25.1937C1148.35 13.1437 1151.78 1.69879 1151.97 -0.239311C1152.16 -2.17742 1152.66 -9.08047 1153.08 -15.5792C1153.5 -22.078 1154.05 -28.3361 1154.3 -29.4865L1154.76 -31.5786L1157.14 -29.6056C1159.51 -27.6398 1159.52 -27.5913 1161.12 -14.548ZM780.117 45.9906C783.115 46.432 805.065 58.0966 820.635 67.5212C821.685 68.1566 820.612 81.9051 819.314 84.4657C819.076 84.9327 785.223 76.3909 785.115 75.8364C785.059 75.5509 783.134 69.6531 780.836 62.7309C776.785 50.5233 775.434 45.6291 776.081 45.5035C776.253 45.47 778.07 45.6896 780.117 45.9906ZM1259.1 -31.5438C1265.43 -27.5964 1265.8 -27.2005 1266.49 -23.6148C1266.9 -21.5391 1267.9 -17.6312 1268.73 -14.9296L1270.23 -10.0183L1261.2 0.704349C1256.23 6.60095 1248.24 16.2015 1243.45 22.0382C1238.65 27.8741 1234.55 32.5282 1234.33 32.3792C1234.11 32.2303 1235.48 26.3946 1237.37 19.411C1239.27 12.4275 1243.24 -2.79815 1246.21 -14.4241C1249.17 -26.0511 1251.78 -35.5938 1252.01 -35.6309C1252.24 -35.6681 1255.43 -33.8289 1259.1 -31.5438ZM1245.25 -19.918C1244.05 -15.0169 1241.44 -4.85851 1239.46 2.65688C1237.47 10.1724 1234.78 20.5164 1233.47 25.6427C1232.16 30.7689 1230.88 35.005 1230.62 35.0553C1230.36 35.1056 1221.03 38.6838 1209.89 43.0066C1198.75 47.3293 1189.23 50.8139 1188.74 50.7509C1188.25 50.6871 1193.36 43.1634 1200.1 34.0312C1206.84 24.8988 1214.67 14.2149 1217.51 10.2883C1232.74 -10.7918 1246.64 -29.3587 1247.01 -29.1108C1247.24 -28.955 1246.45 -24.8184 1245.25 -19.918ZM838.289 79.7544C847.634 94.6156 847.208 93.6835 845.749 96.086C844.619 97.9476 820.005 103.607 819.715 102.072C819.061 98.6055 824.494 70.7496 826.3 68.3073C828.989 64.6703 828.526 64.227 838.289 79.7544ZM804.132 83.2754C812.019 85.186 818.553 87.1717 818.652 87.6901C818.845 88.7044 816.649 102.396 816.181 103.085C815.915 103.479 790.186 82.6204 788.184 80.3884C787.02 79.0897 786.324 78.9638 804.132 83.2754ZM1171.5 26.4375C1179.17 51.8003 1179.58 53.606 1177.79 53.9541C1173.42 54.8022 1144.48 54.7589 1140.61 53.8981L1136.16 52.9063L1151.3 32.9691C1159.63 22.004 1166.65 12.9722 1166.9 12.8983C1167.15 12.8243 1169.22 18.9164 1171.5 26.4375ZM1108.88 35.2297L1116.51 37.0812L1125.49 46.3498L1134.47 55.6186L1144.52 78.4309C1156.01 104.499 1159.04 111.531 1158.87 111.781C1158.8 111.878 1145.4 103.204 1129.1 92.505L1099.45 73.0514L1099.67 53.7859C1099.79 43.189 1099.86 34.3288 1099.81 34.0956C1099.64 33.2068 1101.47 33.436 1108.88 35.2297ZM852.486 96.7498C854.125 98.0876 853.715 101.077 851.747 102.147C848.787 103.757 845.725 100.283 847.628 97.4749C848.726 95.8546 850.977 95.5188 852.486 96.7498ZM846.016 102.801C847.242 104.902 847.727 105.062 850.968 104.433L854.56 103.735L862.549 113.204C870.98 123.199 871.354 124.577 865.122 122.696C858.113 120.581 820.576 106.398 820.451 105.819C820.378 105.477 825.794 104.133 832.487 102.834L844.656 100.472L846.016 102.801ZM870.374 107.046C879.941 110.893 881.677 111.297 888.701 111.304C896.141 111.313 927.392 118.758 923.784 119.663C923.101 119.834 911.615 120.647 898.258 121.469L873.974 122.963L869.739 118.121C867.41 115.458 863.318 110.643 860.647 107.421C855.011 100.625 854.456 100.646 870.374 107.046ZM1240.92 43.5591C1252.46 50.6169 1253.4 51.3761 1251.16 51.8124C1248.03 52.4199 1186.87 56.3814 1184.78 56.1114C1181.7 55.7109 1182.5 55.3222 1199.44 48.9387C1207.45 45.924 1217.44 42.0478 1221.64 40.3242C1225.84 38.6015 1229.46 37.1347 1229.68 37.0642C1229.91 36.9946 1234.96 39.9169 1240.92 43.5591ZM1263.21 33.1288C1264.81 34.2064 1256.55 49.5418 1254.53 49.246C1253.02 49.0259 1234.97 37.5067 1235.2 36.9079C1235.73 35.5042 1261.56 32.0196 1263.21 33.1288ZM1162.45 56.4843C1172.07 56.3216 1180.11 56.3002 1180.31 56.4362C1180.51 56.5731 1181.37 61.6608 1182.21 67.7431C1184.38 83.4745 1185.59 83.3787 1159.92 69.5182C1138.09 57.7323 1134.62 55.2575 1141.35 56.2478C1143.34 56.5408 1152.84 56.6477 1162.45 56.4843ZM1161.09 72.6551C1177.24 81.2671 1180.58 83.372 1180.68 84.9923C1180.75 86.1498 1181.78 87.6508 1183.2 88.6748C1185.5 90.3222 1188.74 104.135 1187.32 106.225C1186.7 107.149 1163.56 113.797 1162.87 113.251C1162.5 112.964 1157.49 101.973 1151.75 88.8284C1146 75.6834 1140.95 64.2689 1140.52 63.4631C1139.3 61.1348 1140.5 61.6716 1161.09 72.6551ZM1203.99 57.0729C1261.42 52.9519 1263.36 52.9476 1269.5 56.9443C1273.13 59.3012 1277.37 57.9122 1217.52 73.9608L1191.32 80.9868L1188.86 79.4473C1186.18 77.7634 1185.19 74.4265 1184.28 64.0571C1183.94 60.1791 1184.15 58.769 1185.1 58.5851C1185.8 58.4489 1194.3 57.7685 1203.99 57.0729ZM1144.15 167.925C1141.86 175.592 1139.36 184.066 1138.6 186.756C1137.84 189.447 1137.04 191.523 1136.81 191.371C1136.58 191.218 1130.4 172.252 1123.07 149.224C1115.74 126.196 1107.74 101.13 1105.3 93.5231C1102.86 85.9156 1100.76 79.1274 1100.64 78.4379C1100.52 77.7485 1111.2 94.4647 1124.37 115.584L1148.32 153.984L1144.15 167.925ZM918.063 122.634C926.193 122.122 933.292 121.873 933.839 122.079C934.514 122.333 934.942 128.232 935.173 140.458C935.523 158.977 935.449 159.513 931.089 169.977C930.714 170.878 924.561 166.022 909.073 152.606L887.578 133.985L881.007 132.7C875.794 131.683 874.301 131.029 873.785 129.539C872.385 125.493 872.535 125.44 888.411 124.471C896.59 123.971 909.933 123.144 918.063 122.634ZM1113.32 126.142C1128.5 173.763 1129.04 175.827 1123 162.689C1115.26 145.862 1097.53 106.435 1095.46 101.446L1093.45 96.6105L1095.74 88.9422C1098.69 79.0152 1097.47 76.4241 1113.32 126.142ZM1145.77 106.216L1159.09 115.227L1154.14 132.835C1151.42 142.52 1149.05 150.332 1148.87 150.197C1148.56 149.956 1124.06 110.757 1116.6 98.5704C1114.56 95.2229 1111.15 89.6536 1109.03 86.1955L1105.19 79.9076L1118.82 88.5568C1126.32 93.3147 1138.45 101.261 1145.77 106.216ZM972.88 132.173C973.032 132.263 973.75 134.192 974.477 136.459L975.797 140.581L973.071 141.648C971.571 142.235 966.576 143.328 961.971 144.079L953.599 145.443L946.604 135.133C942.758 129.462 939.504 124.355 939.372 123.784C939.198 123.027 970.817 130.943 972.88 132.173ZM1265.47 68.2653L1261.31 74.4744L1263.65 77.787C1266.61 81.9711 1266.19 91.2764 1263.01 91.8551C1262.71 91.9102 1260.14 92.0332 1257.29 92.1291C1254.45 92.2242 1244.84 92.7265 1235.94 93.2451L1219.76 94.1882L1206.19 89.775C1192.89 85.4471 1190.6 84.4123 1191.59 83.1853C1191.87 82.8489 1206.57 78.7022 1224.26 73.9709C1241.96 69.2387 1257.35 65.0778 1258.48 64.7247C1259.6 64.3715 1262.57 63.626 1265.07 63.0692L1269.62 62.0562L1265.47 68.2653ZM945.422 137.431C948.818 142.426 951.512 146.622 951.408 146.756C950.718 147.647 938.533 156.631 938.263 156.449C937.946 156.237 937.241 133.796 937.406 129.231C937.514 126.235 938.48 127.223 945.422 137.431ZM1095.88 108.101C1124.76 172.597 1132.86 190.857 1132.7 191.075C1132.46 191.394 1097.68 174.531 1095.37 172.973C1093.64 171.806 1067.77 109.398 1068.54 108.256C1068.83 107.838 1087.96 98.7438 1090.62 97.7634C1090.91 97.6542 1093.28 102.307 1095.88 108.101ZM1187.34 80.8866C1190.92 82.5617 1188.69 88.8728 1185.01 87.4638C1182.98 86.6825 1181.86 83.7377 1182.88 81.8721C1183.84 80.1391 1185.13 79.8529 1187.34 80.8866ZM1076.53 135.409C1081.66 148.198 1086.96 161.33 1088.3 164.59C1091.41 172.159 1092.17 171.934 1077.87 167.649L1065.55 163.962L1050.16 152.932C1037.47 143.833 1034.93 141.674 1035.66 140.597C1039.47 134.977 1065.53 109.7 1066.31 110.862C1066.79 111.574 1071.39 122.621 1076.53 135.409ZM1206.87 92.0261L1223.09 97.1585L1228.24 102.787C1231.08 105.883 1235.81 111.005 1238.76 114.172C1241.71 117.338 1243.96 120.165 1243.76 120.455C1243.13 121.392 1195.9 110.719 1193.08 109.003L1190.36 107.341L1189.18 98.4537C1188.12 90.4119 1188.46 87.3194 1190.44 86.9342C1190.56 86.9123 1197.95 89.2036 1206.87 92.0261ZM1014.61 139.854C1032.23 143.192 1030.29 141.062 1031.49 158.376C1032.5 172.89 1032.47 173.487 1030.81 172.292C1025.53 168.48 998.089 140.279 998.258 138.835C998.514 136.651 997.306 136.576 1014.61 139.854ZM1253.37 103.984C1254.09 104.374 1254.79 106.63 1255.3 110.188C1256.16 116.31 1256.02 116.533 1249.79 118.963L1246.85 120.111L1236.72 109.069C1222.71 93.7926 1222.63 94.1953 1238.68 99.1687C1246.14 101.479 1252.75 103.645 1253.37 103.984ZM976.639 146.087C976.676 146.28 974.379 148.925 971.534 151.966L966.362 157.495L961.848 154.132L957.335 150.768L963.009 149.171C970.869 146.959 976.558 145.672 976.639 146.087ZM985.048 144.656C992.607 144.693 1000.89 163.098 996.912 171.018C994.215 176.389 994.764 176.95 987.619 161.527C979.425 143.844 979.546 144.629 985.048 144.656ZM996.44 143.279C999.612 143.834 1032.88 177.46 1033.52 180.759C1034.13 183.885 1021.34 203.682 1019.55 202.386C1017.52 200.912 1003.25 166.927 1002.03 160.664C1000.98 155.266 1000.19 153.263 997.983 150.412C992.995 143.972 992.704 142.625 996.44 143.279ZM953.596 153.871C952.976 172.147 953.844 170.83 945.729 165.819L939.667 162.076L945.955 157.176C953.303 151.449 953.683 151.284 953.596 153.871ZM982.707 156.274C992.158 176.575 992.429 175.875 978.915 166.082L968.628 158.628L970.975 156.102C979.171 147.28 978.516 147.271 982.707 156.274ZM1204.23 119.469C1213.43 125.64 1221.01 130.975 1221.08 131.324C1221.22 132.075 1172.35 141.491 1161.1 142.879L1153.31 143.841L1157.34 130.093L1161.38 116.345L1174.06 112.488C1181.03 110.367 1186.91 108.544 1187.12 108.439C1187.34 108.334 1195.04 113.297 1204.23 119.469ZM961.14 156.11C964.714 158.864 965.203 160.428 965.761 170.894C966.18 178.774 966.616 177.643 962.46 179.458L959.062 180.942L959.046 178.097C959.036 176.137 958.456 174.665 957.185 173.363C955.429 171.565 955.358 171.078 955.726 163.399C956.261 152.245 956.211 152.312 961.14 156.11ZM1048.04 154.155C1055.53 159.495 1061.71 164.149 1061.78 164.496C1061.93 165.269 1036.43 177.512 1035.7 177.02C1034.49 176.213 1032.5 144.184 1033.66 144.343C1034.08 144.4 1040.55 148.816 1048.04 154.155ZM945.79 168.493L951.616 171.974L947.474 178.937C945.195 182.765 943.185 185.927 943.007 185.961C941.637 186.227 933.53 183.225 933.409 182.408C932.936 179.195 937.501 165.395 939.121 165.143C939.584 165.071 942.585 166.578 945.79 168.493ZM1224.22 118.694L1245.91 123.37L1247.75 127.255C1250.17 132.365 1250.58 132.175 1237.56 132.069C1226.71 131.982 1226.07 131.865 1222.71 129.353C1220.78 127.909 1215.08 123.931 1210.04 120.511C1205.01 117.091 1201.26 114.232 1201.71 114.156C1202.16 114.081 1212.29 116.123 1224.22 118.694ZM986.589 174.248L992.707 178.882L991.483 181.941C990.811 183.623 989.587 186.223 988.764 187.719L987.269 190.438L978.72 189.959C974.018 189.696 970.012 189.372 969.817 189.242C969.462 189.003 967.898 170.68 967.699 164.431L967.594 161.111L974.032 165.362C977.574 167.7 983.224 171.699 986.589 174.248ZM955.336 175.274C957.423 176.978 956.65 180.949 954.229 180.957C952.95 180.962 951.318 181.898 949.886 183.45C946.054 187.602 945.904 186.533 949.456 180.388C953.076 174.125 953.488 173.767 955.336 175.274ZM1010.17 188.049C1013.87 196.362 1016.68 203.314 1016.41 203.498C1015.8 203.91 991.989 193.872 991.848 193.142C991.6 191.87 1002.01 171.961 1002.68 172.421C1003.1 172.704 1006.46 179.736 1010.17 188.049ZM937.533 186.934C944.151 188.826 948.319 188.687 950.498 186.504C951.808 185.192 954.058 184.23 957.443 183.536C960.196 182.97 963.241 182.061 964.209 181.515C965.8 180.619 966.02 180.789 966.494 183.289C967.464 188.4 966.942 189.543 961.88 193.378C954.736 198.789 953.852 198.201 957.718 190.611C960.344 185.453 959.357 185.591 954.266 191.096L949.865 195.856L945.064 194.059C941.118 192.583 940.023 192.486 938.911 193.519C937.698 194.644 937.337 194.354 935.438 190.719C932.571 185.232 932.435 185.477 937.533 186.934ZM1230.61 136.913L1236.76 140.714L1237.43 155.223C1237.8 163.203 1238.18 170.202 1238.29 170.775C1238.88 173.977 1229.33 173.72 1212.19 170.074C1202.94 168.105 1186.21 164.585 1175.02 162.253C1151.65 157.382 1149.96 156.522 1151.57 150.316L1152.43 147.037L1188.44 140.074L1224.46 133.112L1230.61 136.913ZM1078.42 170.121C1085.3 172.154 1091.21 174.02 1091.55 174.269C1093.14 175.401 1103.6 228.394 1102.08 227.563C1101.27 227.121 1094.56 221.884 1087.18 215.925C1079.8 209.965 1066.58 200.513 1057.81 194.919C1035.59 180.76 1035.94 181.001 1036.4 180.321C1036.99 179.448 1061.51 167.497 1063.91 166.912C1065.01 166.644 1071.54 168.088 1078.42 170.121ZM951.619 197.772C953.522 196.586 954.062 203.093 952.581 209.375C951.568 213.671 951.496 215.534 952.305 216.488C953.788 218.236 953.202 218.828 950.065 218.754C943.281 218.593 936.201 204.398 939.487 197.542L940.614 195.188L945.576 196.816C948.305 197.712 951.024 198.141 951.619 197.772ZM1173.09 179.062C1195.01 200.231 1195.28 200.535 1193.89 202.302C1192.07 204.617 1174.33 220.572 1173.38 220.758C1172.66 220.897 1171.12 218.548 1153.32 190.174L1144.44 176.004L1147.1 166.433C1148.57 161.169 1150.01 157.031 1150.32 157.237C1150.63 157.443 1160.87 167.264 1173.09 179.062ZM1003.35 201.062L1016.31 206.551L1013.11 209.506C1011.35 211.131 1005.83 216.02 1000.84 220.37L991.772 228.278L978.469 216.421C971.151 209.9 964.043 203.741 962.673 202.736L960.18 200.907L964.503 197.563L968.827 194.219L979.608 194.896C990.019 195.55 990.831 195.76 1003.35 201.062ZM1186.84 166.776C1201.7 169.864 1216.41 172.913 1219.51 173.551C1226.76 175.04 1226.82 174.863 1217.12 181.364L1208.87 186.899L1206.98 193.835C1203.51 206.589 1204.45 207.189 1161.76 164.889C1157.25 160.427 1155.74 160.313 1186.84 166.776ZM1038.21 190.17C1039.41 192.431 1043.63 200.178 1047.59 207.383L1054.79 220.486L1046.4 232.896C1041.79 239.721 1037.57 245.393 1037.02 245.498C1035.86 245.724 1034.84 243.38 1026.84 222.069L1020.82 206.042L1028.01 196.13C1036.45 184.478 1035.49 185.041 1038.21 190.17ZM1077.08 215.113C1079.02 222.154 1084.35 230.681 1088.76 233.797L1091.24 235.547L1092.05 246.986C1093.02 260.455 1093.7 258.88 1084.94 263.346C1076.7 267.541 1077.32 267.596 1077.48 262.686C1077.66 257.043 1077.64 257.002 1057.64 220.671C1047.57 202.378 1039.24 186.946 1039.13 186.379C1039.02 185.811 1047.12 190.611 1057.13 197.044L1075.32 208.743L1077.08 215.113ZM1115.84 185.732C1126.63 191.032 1135.55 195.856 1135.67 196.451C1136.01 198.216 1131.49 242.219 1130.87 243.148C1130.56 243.617 1127.06 240.722 1123.1 236.708C1115.94 229.469 1115.86 229.415 1111.26 229.289C1106.87 229.167 1106.57 229.006 1105.54 226.246C1104.17 222.567 1095.14 176.308 1095.77 176.186C1096.02 176.136 1105.06 180.432 1115.84 185.732ZM1128.48 172.86C1128.53 173.089 1128.38 173.313 1128.15 173.358C1127.92 173.403 1127.69 173.252 1127.65 173.023C1127.6 172.794 1127.75 172.57 1127.98 172.525C1128.21 172.48 1128.44 172.631 1128.48 172.86ZM1148.27 186.526C1150.55 190.241 1156.57 199.864 1161.65 207.908C1166.74 215.953 1170.8 222.815 1170.68 223.158C1170.42 223.877 1135.44 246.272 1134.2 246.514C1133.71 246.609 1133.56 245.148 1133.84 242.91C1134.1 240.84 1135.12 230.043 1136.11 218.917C1137.73 200.696 1141.72 180.212 1143.71 179.849C1143.95 179.805 1146 182.811 1148.27 186.526ZM1019.99 210.759C1021.89 215.129 1032.73 244.168 1032.58 244.465C1032.5 244.627 1024.22 241.047 1014.18 236.511C1004.14 231.974 996.03 228.104 996.161 227.911C996.737 227.062 1017.89 208.59 1018.4 208.491C1018.71 208.431 1019.43 209.451 1019.99 210.759ZM1014.24 239.19C1035.67 248.882 1034.49 247.862 1034.43 256.734C1034.39 262.662 1035.32 261.95 1018.39 268.963C1009.18 272.776 1005.42 274.012 1004.86 273.409C1003.65 272.099 993.465 230.618 994.317 230.452C994.546 230.408 1003.51 234.34 1014.24 239.19ZM1064.21 237.675C1068.48 245.431 1071.81 252.018 1071.61 252.314C1071.29 252.785 1042.35 246.672 1041.18 245.887C1040.69 245.559 1055.15 223.829 1055.96 223.671C1056.24 223.618 1059.95 229.92 1064.21 237.675ZM1056.77 252.13C1065.92 254.21 1073.81 256.275 1074.32 256.72C1075.16 257.456 1075.52 280.833 1074.71 282.028C1074.53 282.29 1068.16 281.698 1060.55 280.713L1046.71 278.921L1045.32 276.017C1039.1 263.081 1039.35 263.897 1039.29 255.978C1039.26 251.879 1039.44 248.487 1039.69 248.438C1039.94 248.389 1047.63 250.05 1056.77 252.13ZM1111.43 248.869C1127.68 259.413 1128.93 260.05 1138.55 262.718C1144.1 264.257 1148.85 265.646 1149.1 265.806C1149.87 266.283 1147.81 267.858 1139.68 273.016C1135.43 275.712 1130.17 279.052 1127.99 280.437L1124.03 282.956L1109.63 270.151L1095.24 257.347L1094.42 247.66C1093.97 242.331 1093.78 237.937 1094 237.894C1094.22 237.852 1102.07 242.79 1111.43 248.869ZM1036.47 269.157C1040.52 277.162 1041.17 279.518 1039.28 279.347C1038.37 279.263 1031.3 278.804 1023.57 278.327C1005.64 277.22 1005.54 277.177 1012.82 274.041C1016.09 272.63 1021.83 270.145 1025.57 268.519C1029.31 266.893 1032.83 265.441 1033.38 265.293C1033.93 265.146 1035.33 266.885 1036.47 269.157ZM1107.9 271.715C1121.95 284.305 1126.25 289.543 1123.03 290.169C1122.44 290.283 1078.4 283.149 1077.92 282.863C1077.72 282.74 1077.55 279.809 1077.54 276.349L1077.54 270.056L1085.79 265.72C1090.32 263.335 1094.43 261.27 1094.92 261.133C1095.4 260.994 1101.24 265.757 1107.9 271.715ZM1020.81 280.735C1028.41 281.224 1034.99 281.845 1035.44 282.117C1036.17 282.557 1009.73 300.063 1007.75 300.447C1006.74 300.642 1004.66 286.996 1005.09 283.028C1005.48 279.498 1004.27 279.673 1020.81 280.735ZM979.237 300.147C980.49 304.256 980.658 305.706 979.895 305.854C978.928 306.041 972.349 305.757 964.572 305.191L961.051 304.935L968.641 299.336C977.355 292.908 977.021 292.882 979.237 300.147ZM998.412 310.973C1008.21 322.917 1008.11 322.454 1001.98 327.198C997.361 330.78 995.731 330.057 998.609 325.705C999.771 323.949 1000.55 322.438 1000.35 322.348C1000.14 322.258 998.828 321.936 997.424 321.632C992.604 320.59 982.239 304.437 980.409 295.116C979.614 291.061 988.499 298.889 998.412 310.973ZM1003.53 293.559C1004.63 299.221 1004.22 299.992 1001.14 298.063C999.395 296.969 997.756 296.768 994.974 297.308C991.562 297.971 990.84 297.762 987.715 295.202L984.244 292.36L993.435 290.634L1002.62 288.909L1003.53 293.559ZM1058.98 283.065C1065.46 283.895 1071.92 284.785 1073.33 285.042L1075.89 285.51L1070.38 294.401C1067.34 299.29 1062.89 306.466 1060.49 310.346L1056.11 317.403L1048.63 312.953C1043.69 310.018 1041.02 307.89 1040.79 306.704C1040.36 304.508 1045.51 281.881 1046.48 281.691C1046.87 281.617 1052.49 282.235 1058.98 283.065ZM1039.92 284.34C1039.97 284.611 1039.16 288.601 1038.1 293.208L1036.19 301.585L1026.19 306.729C1020.7 309.559 1015.61 312.172 1014.9 312.536C1013.93 313.031 1013.07 312.27 1011.5 309.534C1007.94 303.335 1007.43 303.989 1023.72 293.622C1038.84 283.996 1039.75 283.472 1039.92 284.34ZM1171.68 271.418C1181.34 273.947 1189.31 276.277 1189.39 276.595C1189.53 277.238 1182 285.299 1177.83 288.963L1175.15 291.314L1152.11 288.336C1139.43 286.697 1128.5 285.177 1127.81 284.958C1126.87 284.658 1150.15 268.499 1153.7 266.99C1153.92 266.896 1162.01 268.889 1171.68 271.418ZM1001.15 301.08C1004.68 302.821 1005.65 303.881 1008.26 308.868L1011.29 314.641L1009.88 316.716C1008.18 319.223 1009.11 319.923 1000.72 309.774C992.778 300.173 993.216 300.922 995.03 300.054C995.794 299.689 996.562 299.316 996.737 299.227C996.911 299.138 998.895 299.972 1001.15 301.08ZM970.208 308.235C975.119 308.508 979.282 308.829 979.459 308.949C980.834 309.872 967.213 319.335 965.765 318.463C963.826 317.296 962.198 320.256 962.51 324.38C962.687 326.717 962.575 326.665 959.573 323.028C955.752 318.395 955.829 318.851 957.858 312.94C959.808 307.259 958.897 307.606 970.208 308.235ZM1038.93 309.302C1039.54 310.992 1039.53 312.92 1038.88 314.714C1038.33 316.267 1038.16 320.303 1038.51 323.835C1039.33 332.253 1038.95 333.387 1035.34 333.075C1031.71 332.76 1031.34 332.297 1029.42 325.511C1027.47 318.6 1025.4 317.022 1019.55 317.972C1016.04 318.543 1016.51 318.168 1025.94 312.882C1038.32 305.937 1037.77 306.087 1038.93 309.302ZM1017.9 328.079C1015.14 336.372 1014.74 337.042 1013.4 335.644C1007.83 329.859 1009.07 323.526 1016.04 322.173L1020.12 321.38L1017.9 328.079ZM1025.57 321.725C1027.07 322.944 1026.92 323.596 1021.62 338.732L1019.38 345.139L1017.78 343.147C1015.99 340.91 1015.83 341.841 1020.13 328.942C1022.97 320.421 1023.35 319.913 1025.57 321.725ZM1036.62 336.38C1039.11 338.237 1038.22 340.772 1034.86 341.425C1031.89 342.001 1030.25 338.814 1032.35 336.557C1034.05 334.734 1034.4 334.72 1036.62 336.38Z" fill="url(#paint6_linear_0_1)"/>
</g>
<path fill-rule="evenodd" clip-rule="evenodd" d="M1189.74 -50.2286C1184.86 -36.1215 1171.75 -5.87827 1168.31 -0.818788C1167.66 0.14112 1166 -9.94795 1164.3 -25.1053L1163.64 -31.0271L1157.15 -35.7966L1150.66 -40.5659L1150.3 -37.4919C1150.11 -35.801 1149.34 -26.2572 1148.61 -16.2831L1147.27 1.85078L1139.94 23.7018C1135.91 35.7207 1132.4 45.6659 1132.14 45.8036C1131.88 45.9413 1128.82 43.1063 1125.33 39.5046L1118.99 32.9558L1107.42 30.1068C1101.05 28.5397 1095.7 27.4758 1095.52 27.7425C1095.33 28.0094 1095.11 38.8368 1095.02 51.8029C1094.86 74.4948 1094.75 75.7135 1092.17 84.3162L1089.48 93.2539L1076.19 99.3317L1062.89 105.409L1047.11 121.597C1034.48 134.558 1030.95 137.743 1029.39 137.575C1028.32 137.458 1020.46 136.046 1011.93 134.438C993.784 131.015 994.903 130.978 994.058 135.034L993.392 138.224L986.837 139.244L980.281 140.264L978.391 134.328C976.08 127.065 980.995 129.054 934.931 116.742C902.282 108.016 896.332 106.687 889.126 106.512C881.403 106.326 879.913 105.939 867.062 100.794L853.279 95.276L850.082 90.0953C827.63 53.7025 829.98 56.8039 827.124 59.7955C824.319 62.7342 826.296 64.7853 809.868 41.8843L795.771 22.2343L787.238 20.2295L778.705 18.2248L778.621 28.9705C778.523 41.6043 778.761 41.0316 773.908 40.3168C769.255 39.6315 767.653 39.8768 768.41 41.1585C768.726 41.6919 771.894 51.0381 775.451 61.9274L781.92 81.728L799.271 95.8008L816.62 109.874L842.358 119.338L868.096 128.803L869.311 132.222L870.525 135.64L878.067 137.029L885.609 138.418L906.426 156.589C931.593 178.557 929.121 175.712 928.473 181.961C927.955 186.958 928.03 187.339 930.412 191.84C932.345 195.492 933.064 198.029 933.678 203.369C934.463 210.2 934.476 210.229 939.518 216.735L944.57 223.255L953.563 223.944C964.258 224.763 963.889 225.055 959.893 218.944L956.693 214.049L957.778 210.002C959.087 205.124 957.408 204.151 975.224 220.114L988.901 232.369L990.562 238.312C994.87 253.73 1000.55 278.329 1000.35 280.708C1000.01 284.693 997.499 285.724 986.864 286.246L977.809 286.69L966.965 294.304L956.122 301.918L953.261 311.292L950.399 320.665L961.132 332.405C967.035 338.863 972.048 344.272 972.27 344.427C973.256 345.111 972.97 343.415 970.873 336.127C967.698 325.102 967.64 325.307 975.696 319.111C983.652 312.993 982.995 312.896 988.495 321.021L991.755 325.836L989.188 329.288L986.622 332.741L993.124 334.244C999.38 335.692 999.713 335.679 1001.95 333.919C1003.22 332.914 1004.61 332.35 1005.02 332.666C1006.21 333.583 1011.72 342.617 1015.89 350.482C1020.39 358.988 1019.97 359.145 1024.05 347.41C1027.69 336.942 1028 336.917 1030.8 346.868C1031.89 350.751 1033.04 354.203 1033.35 354.541C1035.12 356.489 1044.44 330.003 1043.58 325.471C1041.7 315.636 1042.64 315.008 1050.87 320.599C1058.18 325.57 1055.83 327.396 1068.58 306.829C1074.58 297.157 1079.94 289.126 1080.49 288.984C1081.04 288.841 1091.89 290.406 1104.59 292.462C1132.14 296.917 1130.49 296.852 1129.48 293.454C1128.47 290.071 1126.35 290.064 1153.33 293.539L1176.62 296.54L1185.77 287.575C1190.81 282.645 1195.97 277.487 1197.23 276.111L1199.54 273.611L1187.28 270.469C1180.54 268.741 1164.52 264.496 1151.67 261.035L1128.33 254.742L1108.71 241.392C1093.9 231.306 1088.59 227.217 1086.99 224.67C1083.86 219.663 1084.59 219.946 1093.51 227.201C1097.99 230.843 1102.26 233.87 1103 233.928C1103.74 233.987 1106.52 234.074 1109.18 234.121L1114.01 234.208L1123.42 243.95L1132.83 253.691L1136.53 251.337C1171.88 228.806 1175.36 226.367 1186.49 216.247L1197.82 205.953L1203.45 205.903C1206.55 205.875 1209.15 205.59 1209.24 205.271C1209.32 204.951 1210.36 201.242 1211.54 197.027L1213.69 189.362L1222.51 183.407C1230.57 177.966 1231.84 177.369 1237.22 176.496L1243.11 175.54L1242.25 157.238C1241.78 147.173 1241.11 138.356 1240.77 137.644C1240.21 136.473 1240.94 136.361 1248.48 136.462C1258.5 136.596 1258.09 137.077 1254.47 129.475C1252.86 126.068 1251.63 123.175 1251.75 123.049C1251.87 122.921 1253.93 121.883 1256.34 120.741L1260.71 118.665L1259.96 110.873C1259.05 101.37 1258.94 101.185 1253.14 99.3601C1246.69 97.3283 1247.6 96.679 1257.6 96.179C1268.09 95.6535 1267.74 95.8742 1269.97 88.4454L1271.78 82.4115L1269.34 77.9157L1266.89 73.419L1272.5 65.593L1278.11 57.766L1274.27 54.8627C1272.16 53.2655 1268.42 51.2493 1265.95 50.3817C1260.42 48.4396 1260.43 49.3664 1265.92 40.4946C1271.3 31.8182 1271.26 32.7092 1266.39 29.9418C1262.61 27.7974 1262.4 27.7857 1252.87 29.2051C1246.59 30.1401 1243.12 30.3215 1243.01 29.7213C1242.91 29.212 1250 20.2122 1258.75 9.72196L1274.66 -9.35117L1272.33 -19.5604L1269.99 -29.7694L1261.55 -35.3447L1253.11 -40.9194L1249.48 -51.2975C1244.86 -64.4709 1245.2 -64.3732 1239.8 -54.0748C1234.18 -43.3782 1234.9 -43.4118 1229.92 -53.6159C1227.64 -58.2837 1225.18 -63.2913 1224.46 -64.7448L1223.16 -67.3873L1218.88 -57.8262C1216.52 -52.5672 1214.37 -48.2209 1214.09 -48.1678C1213.82 -48.1139 1209.96 -52.4975 1205.53 -57.909C1201.1 -63.3213 1197.11 -67.7861 1196.66 -67.8323C1196.22 -67.8776 1193.1 -59.9564 1189.74 -50.2286ZM1201.46 -55.8711C1202.98 -54.1445 1206.37 -50.0177 1209.01 -46.7007L1213.8 -40.6714L1206.69 -20.7537C1196.25 8.46699 1193.07 16.9979 1182.07 45.2037C1180.84 48.355 1180.95 48.5965 1174.58 27.938L1168.75 9.03342L1178.21 -10.7365C1183.42 -21.6093 1189.89 -36.8679 1192.61 -44.6448C1198.19 -60.616 1197.77 -60.0905 1201.46 -55.8711ZM806.631 45.1392C814.064 55.5245 820.056 64.1529 819.948 64.3123C819.396 65.1264 784.216 44.3815 783.967 43.0955C783.663 41.5329 783.471 28.2209 783.716 25.6921C783.849 24.3128 784.243 24.2743 788.489 25.2227L793.118 26.2576L806.631 45.1392ZM1226.07 -50.7082C1232.27 -38.4108 1234.25 -34.7979 1234.7 -34.9287C1234.98 -35.0076 1237.02 -38.7107 1239.25 -43.1578C1241.48 -47.6049 1243.55 -51.2916 1243.85 -51.3499C1244.37 -51.4509 1248.4 -40.8311 1248.99 -37.8201C1249.38 -35.762 1183.91 53.5447 1182.63 52.6848C1182.29 52.4548 1184.8 44.823 1188.2 35.7252C1191.61 26.6266 1199.08 6.21647 1204.81 -9.63181C1214.98 -37.7758 1221.87 -54.8629 1223.15 -55.1113C1223.5 -55.1793 1224.81 -53.1983 1226.07 -50.7082ZM1161.12 -14.548C1162.17 -6.03475 1163.39 0.507638 1164.63 4.17492L1166.54 9.81129L1162.8 14.7638C1150.64 30.8691 1137.23 48.0356 1137.14 47.605C1137.09 47.3293 1140.33 37.2445 1144.34 25.1937C1148.35 13.1437 1151.78 1.69879 1151.97 -0.239312C1152.16 -2.17741 1152.66 -9.08047 1153.08 -15.5792C1153.5 -22.078 1154.05 -28.3361 1154.3 -29.4865L1154.76 -31.5786L1157.14 -29.6056C1159.51 -27.6398 1159.52 -27.5913 1161.12 -14.548ZM780.117 45.9906C783.115 46.432 805.065 58.0966 820.635 67.5212C821.685 68.1566 820.612 81.9051 819.314 84.4657C819.076 84.9327 785.223 76.3909 785.115 75.8364C785.059 75.5509 783.134 69.6531 780.836 62.7309C776.785 50.5233 775.434 45.6291 776.081 45.5035C776.253 45.47 778.07 45.6896 780.117 45.9906ZM1259.1 -31.5438C1265.43 -27.5964 1265.8 -27.2005 1266.49 -23.6148C1266.9 -21.5391 1267.9 -17.6312 1268.73 -14.9296L1270.23 -10.0183L1261.2 0.704349C1256.23 6.60095 1248.24 16.2015 1243.45 22.0382C1238.65 27.8741 1234.55 32.5282 1234.33 32.3792C1234.11 32.2303 1235.48 26.3946 1237.37 19.411C1239.27 12.4275 1243.24 -2.79815 1246.21 -14.4241C1249.17 -26.0511 1251.78 -35.5938 1252.01 -35.6309C1252.24 -35.6681 1255.43 -33.8289 1259.1 -31.5438ZM1245.25 -19.918C1244.05 -15.0169 1241.44 -4.85851 1239.46 2.65688C1237.47 10.1724 1234.78 20.5164 1233.47 25.6427C1232.16 30.7689 1230.88 35.005 1230.62 35.0553C1230.36 35.1056 1221.03 38.6838 1209.89 43.0066C1198.75 47.3293 1189.23 50.8139 1188.74 50.7509C1188.25 50.6871 1193.36 43.1634 1200.1 34.0312C1206.84 24.8988 1214.67 14.2149 1217.51 10.2883C1232.74 -10.7918 1246.64 -29.3587 1247.01 -29.1108C1247.24 -28.955 1246.45 -24.8184 1245.25 -19.918ZM838.289 79.7544C847.634 94.6156 847.208 93.6835 845.749 96.086C844.619 97.9476 820.005 103.607 819.715 102.072C819.061 98.6055 824.494 70.7496 826.3 68.3073C828.989 64.6703 828.526 64.227 838.289 79.7544ZM804.132 83.2754C812.019 85.186 818.553 87.1717 818.652 87.6901C818.845 88.7044 816.649 102.396 816.181 103.085C815.915 103.479 790.186 82.6204 788.184 80.3884C787.02 79.0897 786.324 78.9638 804.132 83.2754ZM1171.5 26.4375C1179.17 51.8003 1179.58 53.606 1177.79 53.954C1173.42 54.8022 1144.48 54.7589 1140.61 53.8981L1136.16 52.9063L1151.3 32.9691C1159.63 22.004 1166.65 12.9722 1166.9 12.8982C1167.15 12.8243 1169.22 18.9164 1171.5 26.4375ZM1108.88 35.2297L1116.51 37.0812L1125.49 46.3498L1134.47 55.6186L1144.52 78.4309C1156.01 104.499 1159.04 111.531 1158.87 111.781C1158.8 111.878 1145.4 103.204 1129.1 92.505L1099.45 73.0514L1099.67 53.7859C1099.79 43.189 1099.86 34.3288 1099.81 34.0956C1099.64 33.2068 1101.47 33.436 1108.88 35.2297ZM852.486 96.7498C854.125 98.0876 853.715 101.077 851.747 102.147C848.787 103.757 845.725 100.283 847.628 97.4749C848.726 95.8546 850.977 95.5188 852.486 96.7498ZM846.016 102.801C847.242 104.902 847.727 105.062 850.968 104.433L854.56 103.735L862.549 113.204C870.98 123.199 871.354 124.577 865.122 122.696C858.113 120.581 820.576 106.398 820.451 105.819C820.378 105.477 825.794 104.133 832.487 102.834L844.656 100.472L846.016 102.801ZM870.374 107.046C879.941 110.893 881.677 111.297 888.701 111.304C896.141 111.313 927.392 118.758 923.784 119.663C923.101 119.834 911.615 120.647 898.258 121.469L873.974 122.963L869.739 118.121C867.41 115.458 863.318 110.643 860.647 107.421C855.011 100.625 854.456 100.646 870.374 107.046ZM1240.92 43.5591C1252.46 50.6169 1253.4 51.3761 1251.16 51.8124C1248.03 52.4199 1186.87 56.3814 1184.78 56.1114C1181.7 55.7109 1182.5 55.3222 1199.44 48.9387C1207.45 45.924 1217.44 42.0478 1221.64 40.3242C1225.83 38.6015 1229.46 37.1347 1229.68 37.0643C1229.91 36.9946 1234.96 39.9169 1240.92 43.5591ZM1263.21 33.1288C1264.81 34.2064 1256.55 49.5419 1254.53 49.246C1253.02 49.0259 1234.97 37.5067 1235.2 36.9079C1235.73 35.5042 1261.56 32.0196 1263.21 33.1288ZM1162.45 56.4843C1172.07 56.3216 1180.11 56.3002 1180.31 56.4362C1180.51 56.5731 1181.37 61.6608 1182.21 67.7431C1184.38 83.4745 1185.59 83.3787 1159.92 69.5181C1138.09 57.7323 1134.62 55.2575 1141.35 56.2478C1143.34 56.5408 1152.84 56.6477 1162.45 56.4843ZM1161.09 72.6551C1177.24 81.2671 1180.58 83.372 1180.68 84.9923C1180.75 86.1498 1181.78 87.6508 1183.2 88.6748C1185.5 90.3222 1188.74 104.135 1187.32 106.225C1186.7 107.149 1163.56 113.797 1162.87 113.251C1162.5 112.964 1157.49 101.973 1151.75 88.8284C1146 75.6834 1140.95 64.2689 1140.52 63.4631C1139.3 61.1348 1140.5 61.6716 1161.09 72.6551ZM1203.99 57.0729C1261.42 52.9519 1263.36 52.9476 1269.5 56.9443C1273.13 59.3012 1277.37 57.9122 1217.52 73.9608L1191.32 80.9868L1188.86 79.4473C1186.18 77.7634 1185.19 74.4265 1184.28 64.0571C1183.94 60.179 1184.15 58.769 1185.1 58.585C1185.8 58.4489 1194.3 57.7685 1203.99 57.0729ZM1144.15 167.925C1141.86 175.592 1139.36 184.066 1138.6 186.756C1137.84 189.447 1137.04 191.523 1136.81 191.371C1136.58 191.218 1130.4 172.252 1123.07 149.224C1115.74 126.196 1107.74 101.13 1105.3 93.5231C1102.86 85.9157 1100.76 79.1274 1100.64 78.4379C1100.52 77.7485 1111.2 94.4647 1124.37 115.584L1148.32 153.984L1144.15 167.925ZM918.063 122.634C926.193 122.122 933.292 121.873 933.839 122.079C934.514 122.333 934.942 128.232 935.173 140.458C935.523 158.977 935.449 159.513 931.089 169.977C930.714 170.878 924.561 166.022 909.073 152.606L887.578 133.985L881.007 132.7C875.794 131.683 874.301 131.029 873.785 129.539C872.385 125.493 872.535 125.44 888.411 124.471C896.59 123.971 909.933 123.144 918.063 122.634ZM1113.32 126.142C1128.5 173.763 1129.04 175.827 1123 162.689C1115.26 145.862 1097.53 106.435 1095.46 101.446L1093.45 96.6105L1095.74 88.9422C1098.69 79.0152 1097.47 76.4241 1113.32 126.142ZM1145.77 106.216L1159.09 115.227L1154.14 132.835C1151.42 142.52 1149.05 150.332 1148.87 150.197C1148.56 149.956 1124.06 110.757 1116.6 98.5704C1114.56 95.2229 1111.15 89.6536 1109.03 86.1955L1105.19 79.9076L1118.82 88.5568C1126.32 93.3147 1138.45 101.261 1145.77 106.216ZM972.88 132.173C973.032 132.263 973.75 134.192 974.477 136.459L975.797 140.581L973.071 141.648C971.571 142.235 966.576 143.328 961.971 144.079L953.599 145.443L946.604 135.133C942.758 129.462 939.504 124.355 939.372 123.784C939.198 123.027 970.817 130.943 972.88 132.173ZM1265.47 68.2653L1261.31 74.4744L1263.65 77.787C1266.61 81.9711 1266.19 91.2764 1263.01 91.8551C1262.71 91.9102 1260.14 92.0332 1257.29 92.1291C1254.45 92.2242 1244.84 92.7265 1235.94 93.2451L1219.76 94.1882L1206.19 89.775C1192.89 85.447 1190.6 84.4123 1191.59 83.1853C1191.87 82.8489 1206.57 78.7022 1224.26 73.9709C1241.96 69.2387 1257.35 65.0778 1258.48 64.7247C1259.6 64.3715 1262.57 63.626 1265.07 63.0692L1269.62 62.0562L1265.47 68.2653ZM945.422 137.431C948.818 142.426 951.512 146.622 951.408 146.756C950.718 147.647 938.533 156.631 938.262 156.449C937.946 156.237 937.241 133.796 937.406 129.231C937.514 126.235 938.48 127.223 945.422 137.431ZM1095.88 108.101C1124.76 172.597 1132.86 190.857 1132.7 191.075C1132.46 191.394 1097.68 174.531 1095.37 172.973C1093.64 171.806 1067.77 109.398 1068.54 108.256C1068.83 107.838 1087.96 98.7438 1090.62 97.7634C1090.91 97.6542 1093.28 102.307 1095.88 108.101ZM1187.34 80.8866C1190.92 82.5617 1188.69 88.8728 1185.01 87.4638C1182.98 86.6825 1181.86 83.7377 1182.88 81.8721C1183.84 80.1391 1185.13 79.8529 1187.34 80.8866ZM1076.53 135.409C1081.66 148.198 1086.96 161.33 1088.3 164.59C1091.41 172.159 1092.17 171.934 1077.87 167.649L1065.55 163.962L1050.16 152.932C1037.47 143.833 1034.93 141.674 1035.66 140.597C1039.47 134.977 1065.53 109.7 1066.31 110.862C1066.79 111.574 1071.39 122.621 1076.53 135.409ZM1206.87 92.0261L1223.09 97.1586L1228.24 102.787C1231.08 105.883 1235.81 111.005 1238.76 114.172C1241.71 117.338 1243.96 120.165 1243.76 120.455C1243.13 121.392 1195.9 110.719 1193.08 109.003L1190.36 107.341L1189.18 98.4537C1188.12 90.4119 1188.46 87.3194 1190.44 86.9342C1190.56 86.9123 1197.95 89.2036 1206.87 92.0261ZM1014.61 139.854C1032.23 143.192 1030.29 141.062 1031.49 158.376C1032.5 172.89 1032.47 173.487 1030.81 172.292C1025.53 168.48 998.089 140.279 998.258 138.835C998.514 136.651 997.306 136.576 1014.61 139.854ZM1253.37 103.984C1254.09 104.374 1254.79 106.63 1255.3 110.188C1256.16 116.31 1256.02 116.533 1249.79 118.963L1246.85 120.111L1236.72 109.069C1222.71 93.7926 1222.63 94.1953 1238.68 99.1686C1246.14 101.479 1252.75 103.645 1253.37 103.984ZM976.639 146.087C976.676 146.28 974.379 148.925 971.534 151.966L966.362 157.495L961.848 154.132L957.335 150.768L963.009 149.171C970.869 146.959 976.558 145.672 976.639 146.087ZM985.048 144.656C992.607 144.693 1000.89 163.098 996.912 171.018C994.215 176.389 994.764 176.95 987.619 161.527C979.425 143.844 979.546 144.629 985.048 144.656ZM996.44 143.279C999.612 143.834 1032.88 177.46 1033.52 180.759C1034.13 183.885 1021.34 203.682 1019.55 202.386C1017.52 200.912 1003.25 166.927 1002.03 160.664C1000.98 155.266 1000.19 153.263 997.983 150.412C992.995 143.972 992.704 142.625 996.44 143.279ZM953.596 153.871C952.976 172.147 953.844 170.83 945.729 165.819L939.667 162.076L945.955 157.176C953.303 151.449 953.683 151.284 953.596 153.871ZM982.707 156.274C992.158 176.575 992.429 175.875 978.915 166.082L968.628 158.628L970.975 156.102C979.171 147.28 978.516 147.271 982.707 156.274ZM1204.23 119.469C1213.43 125.64 1221.01 130.975 1221.08 131.324C1221.22 132.075 1172.35 141.491 1161.1 142.879L1153.31 143.841L1157.34 130.093L1161.38 116.345L1174.06 112.488C1181.03 110.367 1186.91 108.544 1187.12 108.439C1187.34 108.334 1195.04 113.297 1204.23 119.469ZM961.14 156.11C964.714 158.864 965.203 160.428 965.761 170.894C966.18 178.774 966.616 177.643 962.46 179.458L959.062 180.942L959.046 178.097C959.036 176.137 958.456 174.665 957.185 173.363C955.429 171.565 955.358 171.078 955.726 163.399C956.261 152.245 956.211 152.312 961.14 156.11ZM1048.04 154.155C1055.53 159.495 1061.71 164.149 1061.78 164.496C1061.93 165.269 1036.43 177.512 1035.7 177.02C1034.49 176.213 1032.5 144.184 1033.66 144.343C1034.08 144.4 1040.55 148.816 1048.04 154.155ZM945.79 168.493L951.616 171.974L947.474 178.937C945.195 182.765 943.185 185.927 943.007 185.961C941.637 186.227 933.53 183.225 933.409 182.408C932.936 179.195 937.501 165.395 939.121 165.143C939.584 165.071 942.585 166.578 945.79 168.493ZM1224.22 118.694L1245.91 123.37L1247.75 127.255C1250.17 132.365 1250.58 132.175 1237.56 132.069C1226.71 131.982 1226.07 131.865 1222.71 129.353C1220.78 127.909 1215.08 123.931 1210.04 120.511C1205.01 117.091 1201.26 114.232 1201.71 114.156C1202.16 114.081 1212.29 116.123 1224.22 118.694ZM986.589 174.248L992.707 178.882L991.483 181.941C990.811 183.623 989.587 186.223 988.764 187.719L987.269 190.438L978.72 189.959C974.018 189.696 970.012 189.372 969.817 189.242C969.462 189.003 967.898 170.68 967.699 164.431L967.594 161.11L974.032 165.362C977.574 167.7 983.224 171.699 986.589 174.248ZM955.336 175.274C957.423 176.978 956.65 180.949 954.229 180.957C952.95 180.962 951.318 181.898 949.886 183.45C946.054 187.602 945.904 186.533 949.456 180.388C953.076 174.125 953.488 173.767 955.336 175.274ZM1010.17 188.049C1013.87 196.362 1016.68 203.314 1016.41 203.498C1015.8 203.91 991.989 193.872 991.848 193.142C991.6 191.87 1002.01 171.961 1002.68 172.421C1003.1 172.704 1006.46 179.736 1010.17 188.049ZM937.533 186.934C944.151 188.826 948.319 188.687 950.498 186.504C951.808 185.192 954.058 184.23 957.443 183.536C960.196 182.97 963.241 182.061 964.209 181.515C965.8 180.619 966.02 180.789 966.494 183.289C967.464 188.4 966.942 189.543 961.88 193.378C954.736 198.789 953.852 198.201 957.718 190.611C960.344 185.453 959.357 185.591 954.266 191.096L949.865 195.856L945.064 194.059C941.118 192.583 940.023 192.486 938.911 193.519C937.698 194.644 937.337 194.354 935.438 190.719C932.571 185.232 932.435 185.477 937.533 186.934ZM1230.61 136.913L1236.76 140.714L1237.43 155.223C1237.8 163.203 1238.18 170.202 1238.29 170.775C1238.88 173.977 1229.33 173.72 1212.19 170.074C1202.94 168.105 1186.21 164.585 1175.02 162.253C1151.65 157.382 1149.96 156.522 1151.57 150.316L1152.43 147.037L1188.44 140.074L1224.46 133.112L1230.61 136.913ZM1078.42 170.121C1085.3 172.154 1091.21 174.02 1091.55 174.269C1093.14 175.401 1103.6 228.393 1102.08 227.563C1101.27 227.121 1094.56 221.884 1087.18 215.925C1079.8 209.965 1066.58 200.513 1057.81 194.919C1035.59 180.76 1035.94 181.001 1036.4 180.321C1036.99 179.448 1061.51 167.497 1063.91 166.912C1065.01 166.644 1071.54 168.088 1078.42 170.121ZM951.619 197.772C953.522 196.586 954.062 203.093 952.581 209.375C951.568 213.671 951.496 215.534 952.305 216.488C953.788 218.236 953.202 218.828 950.065 218.754C943.281 218.593 936.201 204.398 939.487 197.542L940.614 195.188L945.576 196.816C948.305 197.712 951.024 198.141 951.619 197.772ZM1173.09 179.062C1195.01 200.231 1195.28 200.535 1193.89 202.302C1192.07 204.617 1174.33 220.572 1173.38 220.758C1172.66 220.897 1171.12 218.548 1153.32 190.174L1144.44 176.004L1147.1 166.433C1148.57 161.169 1150.01 157.031 1150.32 157.237C1150.63 157.443 1160.87 167.264 1173.09 179.062ZM1003.35 201.062L1016.31 206.551L1013.11 209.506C1011.35 211.131 1005.83 216.02 1000.84 220.37L991.772 228.278L978.469 216.421C971.151 209.9 964.043 203.741 962.673 202.736L960.18 200.907L964.503 197.563L968.827 194.219L979.608 194.896C990.019 195.55 990.831 195.76 1003.35 201.062ZM1186.84 166.776C1201.7 169.864 1216.41 172.913 1219.51 173.551C1226.76 175.04 1226.82 174.863 1217.12 181.364L1208.87 186.899L1206.98 193.835C1203.51 206.589 1204.45 207.189 1161.76 164.889C1157.25 160.427 1155.74 160.313 1186.84 166.776ZM1038.21 190.17C1039.41 192.431 1043.63 200.178 1047.59 207.383L1054.79 220.486L1046.4 232.896C1041.79 239.721 1037.57 245.393 1037.02 245.498C1035.86 245.724 1034.84 243.38 1026.84 222.069L1020.82 206.042L1028.01 196.13C1036.45 184.478 1035.49 185.041 1038.21 190.17ZM1077.08 215.113C1079.02 222.154 1084.35 230.681 1088.76 233.797L1091.24 235.547L1092.05 246.986C1093.02 260.455 1093.7 258.88 1084.94 263.346C1076.7 267.541 1077.32 267.596 1077.48 262.686C1077.66 257.043 1077.64 257.002 1057.64 220.671C1047.57 202.378 1039.24 186.946 1039.13 186.379C1039.02 185.811 1047.12 190.611 1057.13 197.044L1075.32 208.743L1077.08 215.113ZM1115.84 185.732C1126.63 191.032 1135.55 195.856 1135.67 196.451C1136.01 198.216 1131.49 242.219 1130.87 243.148C1130.56 243.617 1127.06 240.722 1123.1 236.708C1115.94 229.469 1115.86 229.415 1111.26 229.289C1106.87 229.167 1106.57 229.006 1105.54 226.246C1104.17 222.567 1095.14 176.308 1095.77 176.186C1096.02 176.136 1105.06 180.432 1115.84 185.732ZM1128.48 172.86C1128.53 173.089 1128.38 173.313 1128.15 173.358C1127.92 173.403 1127.69 173.252 1127.65 173.023C1127.6 172.794 1127.75 172.57 1127.98 172.525C1128.21 172.48 1128.44 172.631 1128.48 172.86ZM1148.27 186.526C1150.55 190.241 1156.57 199.864 1161.65 207.908C1166.74 215.953 1170.8 222.815 1170.68 223.158C1170.42 223.877 1135.44 246.272 1134.2 246.514C1133.71 246.609 1133.56 245.148 1133.84 242.91C1134.1 240.84 1135.12 230.043 1136.11 218.917C1137.73 200.696 1141.72 180.212 1143.71 179.849C1143.95 179.805 1146 182.811 1148.27 186.526ZM1019.99 210.759C1021.89 215.129 1032.73 244.168 1032.58 244.465C1032.5 244.627 1024.22 241.047 1014.18 236.511C1004.14 231.974 996.03 228.104 996.161 227.911C996.737 227.062 1017.89 208.59 1018.4 208.491C1018.71 208.431 1019.43 209.451 1019.99 210.759ZM1014.24 239.19C1035.67 248.882 1034.49 247.862 1034.43 256.734C1034.39 262.662 1035.32 261.95 1018.39 268.963C1009.18 272.776 1005.42 274.012 1004.86 273.409C1003.65 272.099 993.465 230.618 994.317 230.452C994.546 230.408 1003.51 234.34 1014.24 239.19ZM1064.21 237.675C1068.48 245.431 1071.81 252.018 1071.61 252.314C1071.29 252.785 1042.35 246.672 1041.18 245.887C1040.69 245.559 1055.15 223.829 1055.96 223.671C1056.24 223.618 1059.95 229.92 1064.21 237.675ZM1056.77 252.13C1065.92 254.21 1073.81 256.275 1074.32 256.72C1075.16 257.456 1075.52 280.833 1074.71 282.028C1074.53 282.29 1068.16 281.698 1060.55 280.713L1046.71 278.921L1045.32 276.017C1039.1 263.081 1039.35 263.897 1039.29 255.978C1039.26 251.879 1039.44 248.487 1039.69 248.438C1039.94 248.389 1047.63 250.05 1056.77 252.13ZM1111.43 248.869C1127.68 259.413 1128.93 260.05 1138.55 262.718C1144.1 264.257 1148.85 265.646 1149.1 265.806C1149.87 266.283 1147.81 267.858 1139.68 273.016C1135.43 275.712 1130.17 279.052 1127.99 280.437L1124.03 282.956L1109.63 270.151L1095.24 257.347L1094.42 247.66C1093.97 242.331 1093.78 237.937 1094 237.894C1094.22 237.852 1102.07 242.79 1111.43 248.869ZM1036.47 269.157C1040.52 277.162 1041.17 279.518 1039.28 279.347C1038.37 279.263 1031.3 278.804 1023.57 278.327C1005.64 277.22 1005.54 277.177 1012.82 274.041C1016.09 272.63 1021.83 270.145 1025.57 268.519C1029.31 266.893 1032.83 265.441 1033.38 265.293C1033.93 265.146 1035.33 266.885 1036.47 269.157ZM1107.9 271.715C1121.95 284.305 1126.25 289.543 1123.03 290.169C1122.44 290.283 1078.4 283.149 1077.92 282.863C1077.72 282.74 1077.55 279.809 1077.54 276.349L1077.54 270.056L1085.79 265.72C1090.32 263.335 1094.43 261.27 1094.92 261.133C1095.4 260.994 1101.24 265.757 1107.9 271.715ZM1020.81 280.735C1028.41 281.224 1034.99 281.845 1035.44 282.117C1036.17 282.557 1009.73 300.063 1007.75 300.447C1006.74 300.642 1004.66 286.996 1005.09 283.028C1005.48 279.498 1004.27 279.673 1020.81 280.735ZM979.237 300.147C980.49 304.256 980.658 305.706 979.895 305.854C978.928 306.041 972.349 305.757 964.572 305.191L961.051 304.935L968.641 299.336C977.355 292.908 977.021 292.882 979.237 300.147ZM998.412 310.973C1008.21 322.917 1008.11 322.454 1001.98 327.198C997.361 330.78 995.731 330.057 998.609 325.705C999.771 323.949 1000.55 322.438 1000.35 322.348C1000.14 322.258 998.828 321.936 997.424 321.632C992.604 320.59 982.239 304.437 980.409 295.116C979.614 291.061 988.499 298.889 998.412 310.973ZM1003.53 293.559C1004.63 299.221 1004.22 299.992 1001.14 298.063C999.395 296.969 997.756 296.768 994.974 297.308C991.562 297.971 990.84 297.762 987.715 295.202L984.244 292.36L993.435 290.634L1002.62 288.909L1003.53 293.559ZM1058.98 283.065C1065.46 283.895 1071.92 284.785 1073.33 285.042L1075.89 285.51L1070.38 294.401C1067.34 299.29 1062.89 306.466 1060.49 310.347L1056.11 317.403L1048.63 312.953C1043.69 310.018 1041.02 307.89 1040.79 306.704C1040.36 304.508 1045.51 281.881 1046.48 281.691C1046.87 281.617 1052.49 282.235 1058.98 283.065ZM1039.92 284.34C1039.97 284.611 1039.16 288.601 1038.1 293.208L1036.19 301.585L1026.19 306.729C1020.7 309.559 1015.61 312.172 1014.9 312.536C1013.93 313.031 1013.07 312.27 1011.5 309.534C1007.94 303.335 1007.43 303.989 1023.72 293.622C1038.84 283.996 1039.75 283.472 1039.92 284.34ZM1171.68 271.418C1181.34 273.947 1189.31 276.277 1189.39 276.595C1189.53 277.238 1182 285.299 1177.83 288.963L1175.15 291.314L1152.11 288.336C1139.43 286.697 1128.5 285.177 1127.81 284.958C1126.87 284.658 1150.15 268.499 1153.7 266.99C1153.92 266.896 1162.01 268.889 1171.68 271.418ZM1001.15 301.08C1004.68 302.821 1005.65 303.881 1008.26 308.868L1011.29 314.641L1009.88 316.716C1008.18 319.223 1009.11 319.923 1000.72 309.774C992.778 300.173 993.216 300.922 995.03 300.054C995.794 299.689 996.562 299.317 996.737 299.227C996.911 299.138 998.895 299.972 1001.15 301.08ZM970.208 308.235C975.119 308.508 979.282 308.829 979.459 308.949C980.834 309.872 967.213 319.335 965.765 318.463C963.826 317.296 962.198 320.256 962.51 324.38C962.687 326.717 962.575 326.665 959.573 323.028C955.752 318.395 955.829 318.851 957.858 312.94C959.808 307.259 958.897 307.606 970.208 308.235ZM1038.93 309.302C1039.54 310.992 1039.53 312.92 1038.88 314.714C1038.33 316.267 1038.16 320.303 1038.51 323.835C1039.33 332.253 1038.95 333.387 1035.34 333.075C1031.71 332.76 1031.34 332.297 1029.42 325.511C1027.47 318.6 1025.4 317.022 1019.55 317.972C1016.04 318.543 1016.51 318.168 1025.94 312.882C1038.32 305.937 1037.77 306.087 1038.93 309.302ZM1017.9 328.079C1015.14 336.372 1014.74 337.042 1013.4 335.644C1007.83 329.859 1009.07 323.526 1016.04 322.173L1020.12 321.38L1017.9 328.079ZM1025.57 321.725C1027.07 322.944 1026.92 323.596 1021.62 338.732L1019.38 345.139L1017.78 343.147C1015.99 340.91 1015.83 341.841 1020.13 328.942C1022.97 320.421 1023.35 319.913 1025.57 321.725ZM1036.62 336.38C1039.11 338.237 1038.22 340.772 1034.86 341.425C1031.89 342.001 1030.25 338.814 1032.35 336.557C1034.05 334.734 1034.4 334.72 1036.62 336.38Z" fill="url(#paint7_linear_0_1)"/>
<defs>
<filter id="filter0_f_0_1" x="-28" y="248" width="293" height="304.367" filterUnits="userSpaceOnUse" color-interpolation-filters="sRGB">
<feFlood flood-opacity="0" result="BackgroundImageFix"/>
<feBlend mode="normal" in="SourceGraphic" in2="BackgroundImageFix" result="shape"/>
<feGaussianBlur stdDeviation="40" result="effect1_foregroundBlur_0_1"/>
</filter>
<filter id="filter1_f_0_1" x="49.1429" y="325.143" width="138.714" height="150.082" filterUnits="userSpaceOnUse" color-interpolation-filters="sRGB">
<feFlood flood-opacity="0" result="BackgroundImageFix"/>
<feBlend mode="normal" in="SourceGraphic" in2="BackgroundImageFix" result="shape"/>
<feGaussianBlur stdDeviation="1.42857" result="effect1_foregroundBlur_0_1"/>
</filter>
<filter id="filter2_f_0_1" x="-180" y="155" width="375.039" height="390" filterUnits="userSpaceOnUse" color-interpolation-filters="sRGB">
<feFlood flood-opacity="0" result="BackgroundImageFix"/>
<feBlend mode="normal" in="SourceGraphic" in2="BackgroundImageFix" result="shape"/>
<feGaussianBlur stdDeviation="50" result="effect1_foregroundBlur_0_1"/>
</filter>
<filter id="filter3_f_0_1" x="-82.8571" y="252.143" width="180.753" height="195.714" filterUnits="userSpaceOnUse" color-interpolation-filters="sRGB">
<feFlood flood-opacity="0" result="BackgroundImageFix"/>
<feBlend mode="normal" in="SourceGraphic" in2="BackgroundImageFix" result="shape"/>
<feGaussianBlur stdDeviation="1.42857" result="effect1_foregroundBlur_0_1"/>
</filter>
<filter id="filter4_f_0_1" x="952" y="-122" width="300" height="300" filterUnits="userSpaceOnUse" color-interpolation-filters="sRGB">
<feFlood flood-opacity="0" result="BackgroundImageFix"/>
<feBlend mode="normal" in="SourceGraphic" in2="BackgroundImageFix" result="shape"/>
<feGaussianBlur stdDeviation="45" result="effect1_foregroundBlur_0_1"/>
</filter>
<filter id="filter5_f_0_1" x="1039.14" y="-34.8571" width="125.714" height="125.714" filterUnits="userSpaceOnUse" color-interpolation-filters="sRGB">
<feFlood flood-opacity="0" result="BackgroundImageFix"/>
<feBlend mode="normal" in="SourceGraphic" in2="BackgroundImageFix" result="shape"/>
<feGaussianBlur stdDeviation="1.42857" result="effect1_foregroundBlur_0_1"/>
</filter>
<filter id="filter6_f_0_1" x="1086" y="124" width="339" height="350.88" filterUnits="userSpaceOnUse" color-interpolation-filters="sRGB">
<feFlood flood-opacity="0" result="BackgroundImageFix"/>
<feBlend mode="normal" in="SourceGraphic" in2="BackgroundImageFix" result="shape"/>
<feGaussianBlur stdDeviation="50" result="effect1_foregroundBlur_0_1"/>
</filter>
<filter id="filter7_f_0_1" x="1183.14" y="221.143" width="144.714" height="156.595" filterUnits="userSpaceOnUse" color-interpolation-filters="sRGB">
<feFlood flood-opacity="0" result="BackgroundImageFix"/>
<feBlend mode="normal" in="SourceGraphic" in2="BackgroundImageFix" result="shape"/>
<feGaussianBlur stdDeviation="1.42857" result="effect1_foregroundBlur_0_1"/>
</filter>
<filter id="filter8_f_0_1" x="889" y="247" width="243" height="243" filterUnits="userSpaceOnUse" color-interpolation-filters="sRGB">
<feFlood flood-opacity="0" result="BackgroundImageFix"/>
<feBlend mode="normal" in="SourceGraphic" in2="BackgroundImageFix" result="shape"/>
<feGaussianBlur stdDeviation="45" result="effect1_foregroundBlur_0_1"/>
</filter>
<filter id="filter9_f_0_1" x="976.143" y="334.143" width="68.7143" height="68.7143" filterUnits="userSpaceOnUse" color-interpolation-filters="sRGB">
<feFlood flood-opacity="0" result="BackgroundImageFix"/>
<feBlend mode="normal" in="SourceGraphic" in2="BackgroundImageFix" result="shape"/>
<feGaussianBlur stdDeviation="1.42857" result="effect1_foregroundBlur_0_1"/>
</filter>
<filter id="filter10_f_0_1" x="757.56" y="-78.5031" width="531.22" height="445.749" filterUnits="userSpaceOnUse" color-interpolation-filters="sRGB">
<feFlood flood-opacity="0" result="BackgroundImageFix"/>
<feBlend mode="normal" in="SourceGraphic" in2="BackgroundImageFix" result="shape"/>
<feGaussianBlur stdDeviation="5.33528" result="effect1_foregroundBlur_0_1"/>
</filter>
<linearGradient id="paint0_linear_0_1" x1="284.75" y1="432.666" x2="76.6342" y2="383.188" gradientUnits="userSpaceOnUse">
<stop stop-color="#2FBBE6"/>
<stop offset="1" stop-color="white"/>
</linearGradient>
<linearGradient id="paint1_linear_0_1" x1="284.75" y1="432.666" x2="76.6342" y2="383.188" gradientUnits="userSpaceOnUse">
<stop stop-color="#2FBBE6"/>
<stop offset="1" stop-color="white"/>
</linearGradient>
<linearGradient id="paint2_linear_0_1" x1="1252" y1="55" x2="1066" y2="7" gradientUnits="userSpaceOnUse">
<stop stop-color="#2FBBE6"/>
<stop offset="1" stop-color="white"/>
</linearGradient>
<linearGradient id="paint3_linear_0_1" x1="1252" y1="55" x2="1066" y2="7" gradientUnits="userSpaceOnUse">
<stop stop-color="#2FBBE6"/>
<stop offset="1" stop-color="white"/>
</linearGradient>
<linearGradient id="paint4_linear_0_1" x1="1089.25" y1="382.675" x2="991.6" y2="357.475" gradientUnits="userSpaceOnUse">
<stop stop-color="#2FBBE6"/>
<stop offset="1" stop-color="white"/>
</linearGradient>
<linearGradient id="paint5_linear_0_1" x1="1089.25" y1="382.675" x2="991.6" y2="357.475" gradientUnits="userSpaceOnUse">
<stop stop-color="#2FBBE6"/>
<stop offset="1" stop-color="white"/>
</linearGradient>
<linearGradient id="paint6_linear_0_1" x1="1248.19" y1="-54.4091" x2="1011.66" y2="352.523" gradientUnits="userSpaceOnUse">
<stop stop-color="#0A6BB8"/>
<stop offset="1" stop-color="#15B8E7"/>
</linearGradient>
<linearGradient id="paint7_linear_0_1" x1="1248.19" y1="-54.4091" x2="1011.66" y2="352.523" gradientUnits="userSpaceOnUse">
<stop stop-color="#0A6BB8"/>
<stop offset="1" stop-color="#15B8E7"/>
</linearGradient>
</defs>
</svg>
