<svg width="69" height="70" viewBox="0 0 69 70" fill="none" xmlns="http://www.w3.org/2000/svg">
<path d="M34.3906 4.99683C28.1223 5.00422 22.1127 7.49761 17.6803 11.93C13.2479 16.3625 10.7545 22.372 10.7471 28.6404C10.7396 33.7629 12.4128 38.7465 15.5102 42.8265C15.5102 42.8265 16.155 43.6755 16.2603 43.798L34.3906 65.1804L52.5296 43.7873C52.6241 43.6734 53.2711 42.8265 53.2711 42.8265L53.2733 42.8201C56.3691 38.7418 58.0416 33.7606 58.0342 28.6404C58.0268 22.372 55.5334 16.3625 51.101 11.93C46.6686 7.49761 40.659 5.00422 34.3906 4.99683ZM34.3906 37.238C32.6902 37.238 31.0279 36.7338 29.614 35.7891C28.2002 34.8443 27.0982 33.5016 26.4475 31.9306C25.7967 30.3595 25.6265 28.6308 25.9582 26.9631C26.2899 25.2953 27.1088 23.7633 28.3112 22.5609C29.5136 21.3585 31.0455 20.5397 32.7133 20.2079C34.3811 19.8762 36.1098 20.0464 37.6808 20.6972C39.2518 21.3479 40.5946 22.4499 41.5393 23.8638C42.4841 25.2777 42.9883 26.9399 42.9883 28.6404C42.9855 30.9197 42.0787 33.1049 40.467 34.7167C38.8552 36.3285 36.67 37.2352 34.3906 37.238Z" fill="url(#paint0_linear_236_437)"/>
<defs>
<linearGradient id="paint0_linear_236_437" x1="58.0342" y1="13.8972" x2="11.5674" y2="15.5614" gradientUnits="userSpaceOnUse">
<stop stop-color="#0EB6E7"/>
<stop offset="1" stop-color="#0573C1"/>
</linearGradient>
</defs>
</svg>
